:SAMPLES-PER-SECOND 30
:FULLY-SPECIFIED
:DEGREES
108
root  -6.12648 40.365 -1.68971 -4.60858 -79.9692 -0.365479
RightUpLeg  8.06436 -4.64026 0.23652
RightLeg  5.83487 -31.8891 -1.16421
RightFoot  -6.83075 -0.206585 4.0638
RightToes  -3.11842e-008 1.75238e-005 3.56266e-009
Spine  -4.56642 1.35339 6.74974
Spine1  16.6902 4.94789 -9.32764
HEad  -0.304233 -3.452 4.2432
LeftShoulder1  1.58479 -4.37081 -13.1683
LeftArm  -45.4116 -40.6037 -47.2767
LeftForeArm  -149.521 -58.025 -167.244
LeftHand  -0.689468 -3.39599 9.35529
RightShoulder  1.40414 4.41528 10.5625
RightArm  -44.0649 44.3863 24.0285
RightForeArm  -172.677 58.6878 165.143
RightHand  -0.960367 6.99616 -9.32167
LeftUpLeg  -0.520953 6.2474 7.32911
LeftLeg  15.9301 0.98358 0.647014
LeftFoot  -5.33624 0.452414 -8.00285
LeftToes  4.78904e-008 1.4679e-008 1.35657e-009
109
root  -6.14231 40.2662 -1.79524 -3.75467 -79.6555 -2.11938
RightUpLeg  8.41936 -5.11815 0.396524
RightLeg  7.43771 -31.6758 -1.57401
RightFoot  -7.82284 -0.178451 4.0749
RightToes  -3.11842e-008 1.75238e-005 3.56266e-009
Spine  -4.40914 1.40781 7.09606
Spine1  18.5161 5.29894 -9.36979
HEad  -1.47237 -2.19312 3.22661
LeftShoulder1  1.87147 -4.96798 -15.3006
LeftArm  -43.884 -35.4507 -48.6722
LeftForeArm  -147.865 -54.1171 -169.141
LeftHand  -0.532758 -4.11942 6.77726
RightShoulder  1.59332 4.90719 11.8762
RightArm  -39.3838 41.6937 24.9819
RightForeArm  -171.34 57.3882 165.952
RightHand  -0.929456 7.18383 -8.90136
LeftUpLeg  -0.293366 6.06457 7.98956
LeftLeg  17.2706 0.582174 0.523456
LeftFoot  -6.05876 0.409987 -8.09296
LeftToes  4.78904e-008 1.4679e-008 1.35657e-009
110
root  -6.17967 40.2108 -1.8427 -2.65652 -79.9552 -3.59286
RightUpLeg  8.62125 -5.12681 0.683263
RightLeg  7.98091 -31.3659 -1.77473
RightFoot  -8.23155 -0.166105 4.05697
RightToes  -3.11842e-008 1.75238e-005 3.56266e-009
Spine  -4.76859 1.64796 7.88554
Spine1  19.666 5.82074 -9.81783
HEad  -2.63221 -2.57455 2.22964
LeftShoulder1  1.85366 -4.7903 -15.5562
LeftArm  -44.661 -34.8194 -47.7578
LeftForeArm  -148.354 -53.7362 -169.244
LeftHand  -0.483714 -4.58731 5.9068
RightShoulder  1.59486 5.00229 11.6426
RightArm  -38.4179 41.1058 24.1512
RightForeArm  -173.026 58.0676 165.44
RightHand  -0.798143 6.79857 -7.92956
LeftUpLeg  -0.13187 6.48526 8.53344
LeftLeg  18.0033 0.273089 0.418998
LeftFoot  -6.56173 0.385 -8.27309
LeftToes  4.78904e-008 1.4679e-008 1.35657e-009
111
root  -6.2383 40.2093 -1.87229 -2.40662 -80.255 -3.80252
RightUpLeg  8.68215 -5.0544 0.770485
RightLeg  7.86864 -31.1503 -1.72374
RightFoot  -8.2321 -0.167591 4.11056
RightToes  -3.11842e-008 1.75238e-005 3.56266e-009
Spine  -4.36852 1.81877 8.15365
Spine1  18.385 5.93949 -10.0298
HEad  -1.96891 -2.78712 1.55648
LeftShoulder1  1.68466 -4.43962 -14.3099
LeftArm  -46.7618 -37.6071 -45.7108
LeftForeArm  -148.287 -55.6655 -168.396
LeftHand  -0.588207 -4.68907 7.06996
RightShoulder  1.42578 4.5843 10.4041
RightArm  -40.3927 41.6823 22.1489
RightForeArm  -174.762 60.1337 164.072
RightHand  -0.731596 6.05034 -7.73564
LeftUpLeg  -0.0246037 7.13942 8.76249
LeftLeg  18.0311 -0.0501451 0.302275
LeftFoot  -6.59483 0.385629 -8.34596
LeftToes  4.78904e-008 1.4679e-008 1.35657e-009
112
root  -6.33205 40.2975 -1.85802 -3.81073 -80.6975 -1.71677
RightUpLeg  8.46828 -4.92519 0.414837
RightLeg  6.90164 -30.731 -1.25676
RightFoot  -7.69957 -0.181341 4.06066
RightToes  -3.11842e-008 1.75238e-005 3.56266e-009
Spine  -3.93066 1.91401 7.77842
Spine1  15.5143 5.77106 -10.3444
HEad  0.0597918 -3.24666 1.85502
LeftShoulder1  1.49487 -4.19608 -12.3307
LeftArm  -50.8798 -41.6629 -41.1176
LeftForeArm  -149.609 -59.5269 -166.382
LeftHand  -0.607351 -4.14469 7.6632
RightShoulder  1.29067 4.22365 9.36473
RightArm  -43.9929 42.3951 19.3184
RightForeArm  -176.793 63.0775 161.876
RightHand  -0.725193 6.25828 -7.54286
LeftUpLeg  0.00732184 8.17053 8.4707
LeftLeg  16.9951 -0.40441 0.185181
LeftFoot  -5.83811 0.432944 -8.26457
LeftToes  4.78904e-008 1.4679e-008 1.35657e-009
113
root  -6.39765 40.4367 -1.80832 -6.67975 -81.4628 2.18277
RightUpLeg  7.93327 -4.62084 -0.123151
RightLeg  5.62873 -30.1184 -0.864307
RightFoot  -6.75662 -0.206278 3.99747
RightToes  -3.11842e-008 1.75238e-005 3.56266e-009
Spine  -3.83091 1.94071 6.84735
Spine1  12.9141 5.40108 -10.2246
HEad  1.43882 -3.92833 2.80439
LeftShoulder1  1.28914 -3.82574 -10.3261
LeftArm  -57.0371 -46.8684 -34.2817
LeftForeArm  -151.701 -64.356 -163.095
LeftHand  -0.602676 -3.40594 8.19486
RightShoulder  1.08126 3.57788 7.72926
RightArm  -48.5477 43.5993 16.5825
RightForeArm  -179.528 66.1415 159.009
RightHand  -0.788691 6.07239 -8.29601
LeftUpLeg  -0.0436566 9.23483 7.8215
LeftLeg  15.4248 -0.478488 0.140933
LeftFoot  -4.57447 0.531101 -8.51024
LeftToes  4.78904e-008 1.4679e-008 1.35657e-009
114
root  -6.47856 40.6011 -1.72512 -10.4517 -82.4889 6.97015
RightUpLeg  7.49828 -4.19921 -0.651144
RightLeg  4.11522 -29.2433 -0.523088
RightFoot  -5.39467 -0.255604 4.20902
RightToes  -3.11842e-008 1.75238e-005 3.56266e-009
Spine  -3.02725 1.71748 6.30958
Spine1  9.29671 4.84691 -10.6666
HEad  2.28485 -4.03615 4.16001
LeftShoulder1  1.0197 -3.08258 -7.8696
LeftArm  -64.6813 -51.6582 -25.8982
LeftForeArm  -155.668 -69.9505 -157.437
LeftHand  -0.743306 -2.99715 10.5172
RightShoulder  0.875108 2.85168 6.09477
RightArm  -53.3529 44.6085 14.2655
RightForeArm  177.458 69.1898 155.385
RightHand  -0.844002 5.98693 -8.91658
LeftUpLeg  0.15369 9.97043 7.19899
LeftLeg  13.5578 -0.152984 -0.0526948
LeftFoot  -3.10418 0.643633 -8.66828
LeftToes  4.78904e-008 1.4679e-008 1.35657e-009
115
root  -6.53918 40.7785 -1.61115 -14.6197 -83.345 12.2994
RightUpLeg  6.76449 -3.94882 -1.2585
RightLeg  2.83491 -28.3808 -0.126577
RightFoot  -3.91175 -0.316488 4.46056
RightToes  -3.11842e-008 1.75238e-005 3.56266e-009
Spine  -1.97632 1.2057 5.19215
Spine1  5.21404 3.80673 -10.3994
HEad  2.59574 -3.69891 5.46352
LeftShoulder1  0.609423 -1.30635 -4.81783
LeftArm  -71.9474 -55.9466 -18.3346
LeftForeArm  -165.164 -75.7101 -146.487
LeftHand  -0.751112 -2.66333 11.0292
RightShoulder  0.830818 2.83184 5.2905
RightArm  -58.7497 44.8934 10.8521
RightForeArm  173.426 72.0272 150.773
RightHand  -0.855794 6.35911 -8.76422
LeftUpLeg  0.213678 9.0665 6.47809
LeftLeg  11.4305 1.69706 -0.294914
LeftFoot  -1.46557 0.770567 -8.8066
LeftToes  4.78904e-008 1.4679e-008 1.35657e-009
116
root  -6.60278 40.9546 -1.48446 -19.7649 -84.0977 18.5585
RightUpLeg  6.06444 -3.66558 -1.79986
RightLeg  1.47821 -27.9465 0.193393
RightFoot  -2.35947 -0.3822 4.65845
RightToes  -3.11842e-008 1.75238e-005 3.56266e-009
Spine  -1.55871 0.845209 3.38453
Spine1  2.50575 2.8185 -8.73339
HEad  2.19063 -3.50484 6.81331
LeftShoulder1  0.411248 -0.346236 -2.6109
LeftArm  -81.14 -58.8581 -8.67188
LeftForeArm  170.34 -80.767 -120.169
LeftHand  -0.773423 -3.07396 10.8825
RightShoulder  0.637413 2.02877 3.53061
RightArm  -64.1581 45.0773 8.6632
RightForeArm  168.514 74.7673 144.653
RightHand  -0.937229 6.29682 -9.61303
LeftUpLeg  0.507883 7.13269 5.7063
LeftLeg  8.90567 4.64641 -0.668273
LeftFoot  0.17569 0.890564 -8.83172
LeftToes  4.78904e-008 1.4679e-008 1.35657e-009
117
root  -6.65909 41.105 -1.33789 -22.1812 -84.6582 21.9068
RightUpLeg  5.71873 -3.44381 -2.0947
RightLeg  -0.106763 -27.61 0.826472
RightFoot  -0.801607 -0.444783 4.7604
RightToes  -3.11842e-008 1.75238e-005 3.56266e-009
Spine  -0.521549 0.403168 2.13583
Spine1  -0.835975 1.83123 -7.29187
HEad  1.97511 -3.4931 8.17796
LeftShoulder1  0.307214 0.0285136 -0.372382
LeftArm  -89.0183 -60.2061 0.0662442
LeftForeArm  122.098 -81.6022 -70.7668
LeftHand  -0.726268 -3.99734 9.24597
RightShoulder  0.542419 1.6038 2.48464
RightArm  -68.9492 44.3155 6.56709
RightForeArm  160.923 76.7811 137.605
RightHand  -0.95427 6.37997 -9.71629
LeftUpLeg  0.761456 4.99385 5.12609
LeftLeg  6.65245 7.59935 -0.871481
LeftFoot  1.58434 0.977848 -8.70701
LeftToes  4.78904e-008 1.4679e-008 1.35657e-009
118
root  -6.70068 41.1979 -1.18646 -23.0616 -85.2176 23.4615
RightUpLeg  5.49693 -3.40726 -2.31636
RightLeg  -1.33463 -27.1184 1.48395
RightFoot  0.34002 -0.494187 4.84908
RightToes  -3.11842e-008 1.75238e-005 3.56266e-009
Spine  0.217356 0.0622805 0.620597
Spine1  -3.13323 0.968588 -4.87544
HEad  1.73568 -3.86313 8.89357
LeftShoulder1  0.160869 1.30169 1.25507
LeftArm  -94.6652 -62.5813 5.52503
LeftForeArm  92.5461 -77.9572 -40.4888
LeftHand  -0.68602 -2.8069 9.92042
RightShoulder  0.435304 0.879754 1.69583
RightArm  -73.15 44.1511 5.09526
RightForeArm  153.208 78.4832 129.2
RightHand  -1.0132 6.28958 -10.3646
LeftUpLeg  1.01569 3.93918 4.82668
LeftLeg  4.92984 9.40483 -1.07656
LeftFoot  2.38978 0.995841 -8.38258
LeftToes  4.78904e-008 1.4679e-008 1.35657e-009
119
root  -6.75412 41.2426 -1.04009 -23.3582 -85.7495 24.0255
RightUpLeg  5.46432 -3.27262 -2.3753
RightLeg  -1.85639 -26.6305 1.64958
RightFoot  0.952538 -0.537027 5.04351
RightToes  -3.11842e-008 1.75238e-005 3.56266e-009
Spine  -0.295035 -0.0578958 -1.2449
Spine1  -3.20867 0.43133 -1.77745
HEad  1.58714 -4.44336 9.7248
LeftShoulder1  0.125658 1.56983 2.19159
LeftArm  -99.0312 -64.2846 9.78674
LeftForeArm  81.7954 -74.0877 -28.7728
LeftHand  -0.623317 -3.06259 8.85914
RightShoulder  0.337791 -0.0440978 1.52462
RightArm  -76.5514 44.229 4.29031
RightForeArm  147.695 79.3924 122.853
RightHand  -1.05793 6.48972 -10.635
LeftUpLeg  1.71236 3.38896 4.65269
LeftLeg  3.29562 10.6307 -1.29492
LeftFoot  2.69603 0.953814 -7.8718
LeftToes  4.78904e-008 1.4679e-008 1.35657e-009
